<svg width="22" height="22" viewBox="0 0 22 22" fill="none" xmlns="http://www.w3.org/2000/svg">
<path d="M10.94 0C4.89653 0 0 4.89653 0 10.94C0 16.9835 4.89653 21.88 10.94 21.88C16.9835 21.88 21.88 16.9835 21.88 10.94C21.88 4.89653 16.9835 0 10.94 0ZM13.4588 15.4439L9.56809 12.6163C9.43134 12.5148 9.35194 12.356 9.35194 12.1884V4.76419C9.35194 4.47305 9.59014 4.23484 9.88129 4.23484H11.9987C12.2899 4.23484 12.5281 4.47305 12.5281 4.76419V10.8385L15.3292 12.8766C15.5674 13.0486 15.616 13.3794 15.4439 13.6177L14.1999 15.3292C14.0279 15.563 13.6971 15.616 13.4588 15.4439Z" fill="black"/>
</svg>
