<svg width="22" height="25" viewBox="0 0 22 25" fill="none" xmlns="http://www.w3.org/2000/svg">
<path d="M21.875 24.0234V25H0V24.0234C0 23.6999 0.262354 23.4375 0.585938 23.4375H1.5625V5.85938C1.5625 5.21216 2.08716 4.6875 2.73438 4.6875H7.03125V1.17188C7.03125 0.524658 7.55591 0 8.20312 0H13.6719C14.3191 0 14.8438 0.524658 14.8438 1.17188V4.6875H19.1406C19.7878 4.6875 20.3125 5.21216 20.3125 5.85938V23.4375H21.2891C21.6126 23.4375 21.875 23.6999 21.875 24.0234ZM15.0391 9.375H13.0859C12.7624 9.375 12.5 9.63735 12.5 9.96094V11.9141C12.5 12.2376 12.7624 12.5 13.0859 12.5H15.0391C15.3626 12.5 15.625 12.2376 15.625 11.9141V9.96094C15.625 9.63735 15.3626 9.375 15.0391 9.375ZM6.83594 12.5H8.78906C9.11265 12.5 9.375 12.2376 9.375 11.9141V9.96094C9.375 9.63735 9.11265 9.375 8.78906 9.375H6.83594C6.51235 9.375 6.25 9.63735 6.25 9.96094V11.9141C6.25 12.2376 6.51235 12.5 6.83594 12.5ZM11.9141 18.75H9.96094C9.63735 18.75 9.375 19.0124 9.375 19.3359V23.4375H12.5V19.3359C12.5 19.0124 12.2376 18.75 11.9141 18.75ZM15.0391 14.0625H13.0859C12.7624 14.0625 12.5 14.3249 12.5 14.6484V16.6016C12.5 16.9251 12.7624 17.1875 13.0859 17.1875H15.0391C15.3626 17.1875 15.625 16.9251 15.625 16.6016V14.6484C15.625 14.3249 15.3626 14.0625 15.0391 14.0625ZM9.375 14.6484C9.375 14.3249 9.11265 14.0625 8.78906 14.0625H6.83594C6.51235 14.0625 6.25 14.3249 6.25 14.6484V16.6016C6.25 16.9251 6.51235 17.1875 6.83594 17.1875H8.78906C9.11265 17.1875 9.375 16.9251 9.375 16.6016V14.6484ZM8.88672 4.6875H10.1562V5.95703C10.1562 6.03473 10.1871 6.10925 10.2421 6.16419C10.297 6.21913 10.3715 6.25 10.4492 6.25H11.4258C11.5035 6.25 11.578 6.21913 11.6329 6.16419C11.6879 6.10925 11.7188 6.03473 11.7188 5.95703V4.6875H12.9883C13.066 4.6875 13.1405 4.65663 13.1954 4.60169C13.2504 4.54675 13.2812 4.47223 13.2812 4.39453V3.41797C13.2812 3.34027 13.2504 3.26575 13.1954 3.21081C13.1405 3.15587 13.066 3.125 12.9883 3.125H11.7188V1.85547C11.7188 1.77777 11.6879 1.70325 11.6329 1.64831C11.578 1.59337 11.5035 1.5625 11.4258 1.5625H10.4492C10.3715 1.5625 10.297 1.59337 10.2421 1.64831C10.1871 1.70325 10.1562 1.77777 10.1562 1.85547V3.125H8.88672C8.80902 3.125 8.7345 3.15587 8.67956 3.21081C8.62462 3.26575 8.59375 3.34027 8.59375 3.41797V4.39453C8.59375 4.47223 8.62462 4.54675 8.67956 4.60169C8.7345 4.65663 8.80902 4.6875 8.88672 4.6875Z" fill="black"/>
</svg>
