<svg width="22" height="22" viewBox="0 0 22 22" fill="none" xmlns="http://www.w3.org/2000/svg">
<path d="M21.256 15.4612L16.4697 13.4099C16.2652 13.3228 16.038 13.3044 15.8222 13.3576C15.6064 13.4108 15.4137 13.5326 15.2731 13.7048L13.1534 16.2945C9.82683 14.7261 7.14967 12.0489 5.58121 8.72228L8.17095 6.60262C8.34347 6.46231 8.46557 6.26961 8.51877 6.05371C8.57198 5.8378 8.55339 5.61043 8.46583 5.40603L6.41454 0.619699C6.31844 0.399361 6.14846 0.219461 5.93392 0.111022C5.71938 0.0025834 5.47373 -0.0275986 5.23932 0.0256809L0.794873 1.05132C0.568877 1.10351 0.367242 1.23076 0.222879 1.4123C0.0785152 1.59384 -5.20603e-05 1.81895 2.58813e-08 2.0509C2.58813e-08 13.0125 8.88463 21.88 19.8291 21.88C20.0611 21.8801 20.2863 21.8016 20.468 21.6573C20.6496 21.5129 20.7769 21.3112 20.8291 21.0851L21.8547 16.6407C21.9077 16.4051 21.8769 16.1585 21.7676 15.9432C21.6583 15.7279 21.4774 15.5575 21.256 15.4612Z" fill="black"/>
</svg>
