<svg width="22" height="22" viewBox="0 0 22 22" fill="none" xmlns="http://www.w3.org/2000/svg">
<g clip-path="url(#clip0_11_27)">
<path d="M21.5826 18.9168L17.3215 14.6566C17.1292 14.4643 16.8685 14.3575 16.595 14.3575H15.8985C17.0779 12.8489 17.7788 10.952 17.7788 8.88789C17.7788 3.97814 13.7998 0 8.88961 0C3.97943 0 0 3.97814 0 8.88789C0 13.7976 3.979 17.7758 8.88961 17.7758C10.9537 17.7758 12.8515 17.0749 14.36 15.8955V16.592C14.36 16.8655 14.4669 17.1262 14.6592 17.3185L18.9202 21.5787C19.3219 21.9804 19.9715 21.9804 20.3689 21.5787L21.5783 20.3693C21.98 19.9676 21.98 19.3185 21.5826 18.9168ZM8.88961 15.0408C5.49051 15.0408 2.73585 12.2913 2.73585 8.88789C2.73585 5.48923 5.48581 2.735 8.88961 2.735C12.2887 2.735 15.0434 5.48453 15.0434 8.88789C15.0434 12.2866 12.2934 15.0408 8.88961 15.0408ZM8.89046 4.78625C7.14775 4.78625 5.73495 6.19862 5.73495 7.94133C5.73495 9.34985 7.79731 11.9178 8.58747 12.8498C8.62453 12.8941 8.67087 12.9298 8.72323 12.9543C8.77558 12.9788 8.83267 12.9914 8.89046 12.9914C8.94825 12.9914 9.00534 12.9788 9.05769 12.9543C9.11004 12.9298 9.15639 12.8941 9.19345 12.8498C9.98361 11.9178 12.046 9.35028 12.046 7.94133C12.046 6.19862 10.6332 4.78625 8.89046 4.78625ZM8.89046 8.88875C8.3238 8.88875 7.86483 8.42936 7.86483 7.86312C7.86483 7.29647 8.32423 6.8375 8.89046 6.8375C9.45669 6.8375 9.91608 7.29647 9.91608 7.86312C9.91608 8.42936 9.45669 8.88875 8.89046 8.88875Z" fill="black"/>
</g>
<defs>
<clipPath id="clip0_11_27">
<rect width="21.88" height="21.88" fill="white"/>
</clipPath>
</defs>
</svg>
